<svg viewBox="0 0 800 600" xmlns="http://www.w3.org/2000/svg">

    <defs>
      <linearGradient id="bg" x1="0" y1="0" x2="800" y2="600" gradientUnits="userSpaceOnUse">
        <stop offset="0" stop-color="#0d130f"/>
        <stop offset="1" stop-color="#060a08"/>
      </linearGradient>
      <radialGradient id="glow" cx="400" cy="260" r="320" gradientUnits="userSpaceOnUse">
        <stop offset="0" stop-color="#39ff8c" stop-opacity="0.16"/>
        <stop offset="1" stop-color="#39ff8c" stop-opacity="0"/>
      </radialGradient>
    </defs>
    

    <rect x="0" y="0" width="800" height="600" fill="url(#bg)"/>
    <rect x="0" y="0" width="800" height="600" fill="url(#glow)"/>
    <g><line x1="0" y1="0" x2="0" y2="600" stroke="#1c2b21" stroke-width="1" opacity="0.5"/>
<line x1="40" y1="0" x2="40" y2="600" stroke="#1c2b21" stroke-width="1" opacity="0.5"/>
<line x1="80" y1="0" x2="80" y2="600" stroke="#1c2b21" stroke-width="1" opacity="0.5"/>
<line x1="120" y1="0" x2="120" y2="600" stroke="#1c2b21" stroke-width="1" opacity="0.5"/>
<line x1="160" y1="0" x2="160" y2="600" stroke="#1c2b21" stroke-width="1" opacity="0.5"/>
<line x1="200" y1="0" x2="200" y2="600" stroke="#1c2b21" stroke-width="1" opacity="0.5"/>
<line x1="240" y1="0" x2="240" y2="600" stroke="#1c2b21" stroke-width="1" opacity="0.5"/>
<line x1="280" y1="0" x2="280" y2="600" stroke="#1c2b21" stroke-width="1" opacity="0.5"/>
<line x1="320" y1="0" x2="320" y2="600" stroke="#1c2b21" stroke-width="1" opacity="0.5"/>
<line x1="360" y1="0" x2="360" y2="600" stroke="#1c2b21" stroke-width="1" opacity="0.5"/>
<line x1="400" y1="0" x2="400" y2="600" stroke="#1c2b21" stroke-width="1" opacity="0.5"/>
<line x1="440" y1="0" x2="440" y2="600" stroke="#1c2b21" stroke-width="1" opacity="0.5"/>
<line x1="480" y1="0" x2="480" y2="600" stroke="#1c2b21" stroke-width="1" opacity="0.5"/>
<line x1="520" y1="0" x2="520" y2="600" stroke="#1c2b21" stroke-width="1" opacity="0.5"/>
<line x1="560" y1="0" x2="560" y2="600" stroke="#1c2b21" stroke-width="1" opacity="0.5"/>
<line x1="600" y1="0" x2="600" y2="600" stroke="#1c2b21" stroke-width="1" opacity="0.5"/>
<line x1="640" y1="0" x2="640" y2="600" stroke="#1c2b21" stroke-width="1" opacity="0.5"/>
<line x1="680" y1="0" x2="680" y2="600" stroke="#1c2b21" stroke-width="1" opacity="0.5"/>
<line x1="720" y1="0" x2="720" y2="600" stroke="#1c2b21" stroke-width="1" opacity="0.5"/>
<line x1="760" y1="0" x2="760" y2="600" stroke="#1c2b21" stroke-width="1" opacity="0.5"/>
<line x1="800" y1="0" x2="800" y2="600" stroke="#1c2b21" stroke-width="1" opacity="0.5"/>
<line x1="0" y1="0" x2="800" y2="0" stroke="#1c2b21" stroke-width="1" opacity="0.5"/>
<line x1="0" y1="40" x2="800" y2="40" stroke="#1c2b21" stroke-width="1" opacity="0.5"/>
<line x1="0" y1="80" x2="800" y2="80" stroke="#1c2b21" stroke-width="1" opacity="0.5"/>
<line x1="0" y1="120" x2="800" y2="120" stroke="#1c2b21" stroke-width="1" opacity="0.5"/>
<line x1="0" y1="160" x2="800" y2="160" stroke="#1c2b21" stroke-width="1" opacity="0.5"/>
<line x1="0" y1="200" x2="800" y2="200" stroke="#1c2b21" stroke-width="1" opacity="0.5"/>
<line x1="0" y1="240" x2="800" y2="240" stroke="#1c2b21" stroke-width="1" opacity="0.5"/>
<line x1="0" y1="280" x2="800" y2="280" stroke="#1c2b21" stroke-width="1" opacity="0.5"/>
<line x1="0" y1="320" x2="800" y2="320" stroke="#1c2b21" stroke-width="1" opacity="0.5"/>
<line x1="0" y1="360" x2="800" y2="360" stroke="#1c2b21" stroke-width="1" opacity="0.5"/>
<line x1="0" y1="400" x2="800" y2="400" stroke="#1c2b21" stroke-width="1" opacity="0.5"/>
<line x1="0" y1="440" x2="800" y2="440" stroke="#1c2b21" stroke-width="1" opacity="0.5"/>
<line x1="0" y1="480" x2="800" y2="480" stroke="#1c2b21" stroke-width="1" opacity="0.5"/>
<line x1="0" y1="520" x2="800" y2="520" stroke="#1c2b21" stroke-width="1" opacity="0.5"/>
<line x1="0" y1="560" x2="800" y2="560" stroke="#1c2b21" stroke-width="1" opacity="0.5"/>
<line x1="0" y1="600" x2="800" y2="600" stroke="#1c2b21" stroke-width="1" opacity="0.5"/></g>
    <rect x="24" y="24" width="14" height="14" fill="none" stroke="#39ff8c" stroke-width="2"/>
    <path d="M24 38 L24 24 L38 24" fill="none" stroke="#39ff8c" stroke-width="2"/>
    <path d="M762 576 L776 576 L776 562" fill="none" stroke="#39ff8c" stroke-width="2"/>
    <text x="40" y="560" font-family="IBM Plex Mono, monospace" font-size="18" fill="#ffb454" letter-spacing="2">PROFESSR_HRMS_CHATBOT</text>
    <text x="40" y="585" font-family="IBM Plex Mono, monospace" font-size="14" fill="#7fa88a" letter-spacing="1">Intelegain Technologies</text>
    
<g transform="translate(400,270)">

  <g transform="translate(-40,-20)">
    <path d="M-140,-80 h220 a20,20 0 0 1 20,20 v90 a20,20 0 0 1 -20,20 h-160 l-40,40 v-40 h-20 a20,20 0 0 1 -20,-20 v-90 a20,20 0 0 1 20,-20 Z"
      fill="none" stroke="#39ff8c" stroke-width="4.5" stroke-linejoin="round"/>
    <circle cx="-90" cy="-15" r="7" fill="#39ff8c"/>
    <circle cx="-50" cy="-15" r="7" fill="#39ff8c"/>
    <circle cx="-10" cy="-15" r="7" fill="#39ff8c"/>
  </g>
  <g transform="translate(150,30)">
    <circle cx="0" cy="-55" r="30" fill="none" stroke="#ffb454" stroke-width="4"/>
    <path d="M-45,55 a45,55 0 0 1 90,0" fill="none" stroke="#ffb454" stroke-width="4"/>
  </g>

</g>
</svg>