<svg width="120" height="60" viewBox="0 0 120 60" fill="none" xmlns="http://www.w3.org/2000/svg">
<path d="M32.3602 22.746L29.8053 25.3009C34.0634 29.559 34.0634 36.4936 29.8053 40.7517C25.5472 45.0098 18.6126 45.0098 14.3545 40.7517C10.0964 36.4936 10.0964 29.559 14.3545 25.3009L21.1674 18.4879L22.019 17.5146V12.4049L11.6779 22.746C10.3191 24.0911 9.24049 25.6922 8.50434 27.4568C7.76819 29.2213 7.38916 31.1143 7.38916 33.0263C7.38916 34.9383 7.76819 36.8312 8.50434 38.5958C9.24049 40.3604 10.3191 41.9615 11.6779 43.3066C13.023 44.6654 14.6241 45.744 16.3887 46.4802C18.1533 47.2163 20.0463 47.5954 21.9582 47.5954C23.8702 47.5954 25.7632 47.2163 27.5277 46.4802C29.2923 45.744 30.8934 44.6654 32.2385 43.3066C38.0782 37.5886 38.0782 28.3424 32.3602 22.746Z" fill="#EE4C2C"/>
<path d="M27.2503 22.016C28.3253 22.016 29.1968 21.1445 29.1968 20.0695C29.1968 18.9944 28.3253 18.1229 27.2503 18.1229C26.1752 18.1229 25.3037 18.9944 25.3037 20.0695C25.3037 21.1445 26.1752 22.016 27.2503 22.016Z" fill="#EE4C2C"/>
<path d="M48.0081 32.028H46.0081V37.172H44.5151V22.57H48.1651C52.0371 22.57 53.8621 24.45 53.8621 27.17C53.8621 30.378 51.5941 31.982 47.9991 32.037L48.0081 32.028ZM48.1081 23.953H45.9601V30.646L48.0621 30.591C50.8281 30.536 52.3221 29.429 52.3221 27.161C52.3221 25.115 50.8841 23.953 48.1181 23.953H48.1081ZM60.6201 37.116L59.7351 39.439C58.7391 42.039 57.7351 42.813 56.2501 42.813C55.4201 42.813 54.8121 42.593 54.1481 42.315L54.5901 40.988C55.0881 41.265 55.6401 41.43 56.2501 41.43C57.0801 41.43 57.6881 40.988 58.4621 38.93L59.1821 37.05L55.0341 26.486H56.5841L59.9581 35.336L63.2781 26.486H64.7711L60.6201 37.116ZM69.7451 24.008V37.228H68.2521V24.008H63.1081V22.57H74.8881V23.953H69.7441L69.7451 24.008ZM79.0921 37.503C76.1051 37.503 73.8921 35.291 73.8921 31.861C73.8921 28.431 76.1601 26.164 79.1921 26.164C82.1791 26.164 84.3361 28.376 84.3361 31.806C84.3361 35.236 82.0681 37.503 79.0811 37.503H79.0921ZM79.1471 27.503C76.8791 27.503 75.3871 29.328 75.3871 31.817C75.3871 34.417 76.9371 36.187 79.2031 36.187C81.4691 36.187 82.9631 34.362 82.9631 31.873C82.9631 29.273 81.4131 27.503 79.1471 27.503ZM88.0531 37.227H86.6151V26.497L88.0531 26.22V28.488C88.7731 27.105 89.8231 26.22 91.2061 26.22C91.8647 26.2254 92.5113 26.3967 93.0861 26.718L92.7001 28.1C92.2581 27.823 91.6501 27.658 91.0401 27.658C89.9341 27.658 88.8831 28.488 87.9981 30.424V37.227H88.0531ZM98.7831 37.503C95.5751 37.503 93.5281 35.18 93.5281 31.861C93.5281 28.487 95.7401 26.164 98.7831 26.164C100.11 26.164 101.217 26.496 102.157 27.104L101.77 28.431C100.94 27.878 99.9451 27.546 98.7831 27.546C96.4601 27.546 95.0231 29.261 95.0231 31.806C95.0231 34.406 96.5731 36.12 98.8391 36.12C99.8987 36.1151 100.935 35.8081 101.826 35.235L102.103 36.562C101.163 37.17 100.001 37.503 98.7831 37.503ZM111.117 37.227V30.313C111.117 28.433 110.343 27.613 108.849 27.613C107.632 27.613 106.415 28.221 105.529 29.163V37.293H104.091V21.473L105.529 21.196V27.944C106.635 26.838 108.073 26.229 109.235 26.229C111.337 26.229 112.609 27.556 112.609 29.879V37.235L111.117 37.227Z" fill="black"/>
</svg>
